<svg width="32" height="32" xmlns="http://www.w3.org/2000/svg" xmlns:svg="http://www.w3.org/2000/svg">
 <g>
  <title>Layer 1</title>
  <g stroke="null" id="svg_8">
   <g stroke="null" id="svg_1">
    <g stroke="null" id="svg_2">
     <path stroke="null" fill="#FFFFFF" d="m21.35287,19.16607c-0.77688,-0.37405 -1.98538,-0.23018 -2.64717,0.28774c0,0 -1.26604,1.00707 -2.70472,1.00707c-1.55377,0 -2.76226,-0.9783 -2.76226,-0.9783c-0.6618,-0.5467 -1.84151,-0.69056 -2.6184,-0.31651c0,0 -1.29481,0.37406 -1.78396,0.71934s-0.89198,1.26604 -0.89198,2.10047c0,0.83444 0.69057,1.52501 1.55378,1.52501l12.97688,0c0.86321,0 1.55377,-0.69056 1.55377,-1.52501c0,-0.83443 -0.40283,-1.78395 -0.92075,-2.10047s-1.75519,-0.71934 -1.75519,-0.71934l0.00001,0l-0.00001,0z" id="svg_3"/>
     <path stroke="#FFFFFF" fill="none" stroke-miterlimit="10" d="m21.35287,19.16607c-0.77688,-0.37405 -1.98538,-0.23018 -2.64717,0.28774c0,0 -1.26604,1.00707 -2.70472,1.00707c-1.55377,0 -2.76226,-0.9783 -2.76226,-0.9783c-0.6618,-0.5467 -1.84151,-0.69056 -2.6184,-0.31651c0,0 -1.29481,0.37406 -1.78396,0.71934s-0.89198,1.26604 -0.89198,2.10047c0,0.83444 0.69057,1.52501 1.55378,1.52501l12.97688,0c0.86321,0 1.55377,-0.69056 1.55377,-1.52501c0,-0.83443 -0.40283,-1.78395 -0.92075,-2.10047s-1.75519,-0.71934 -1.75519,-0.71934l0.00001,0l-0.00001,0z" id="svg_4"/>
    </g>
    <path stroke="#FFFFFF" fill="#FFFFFF" stroke-miterlimit="10" d="m20.60475,12.28919c0,-3.16509 -2.0717,-4.92029 -4.60377,-4.92029c-2.53207,0 -4.60377,1.75519 -4.60377,4.92029c0,2.1868 0.9783,4.4599 2.3882,5.6684c0.71934,-0.14387 1.43868,-0.25896 2.12925,-0.25896c0.74811,0 1.49622,0.11509 2.24434,0.25896c1.46746,-1.17972 2.44576,-3.48161 2.44576,-5.6684z" id="svg_5"/>
    <path stroke="#FFFFFF" fill="#FFFFFF" stroke-miterlimit="10" d="m13.78541,17.95758c0.66179,0.57547 1.4099,0.89198 2.21557,0.89198c0.77688,0 1.525,-0.31651 2.18679,-0.89198c-0.74811,-0.17264 -1.525,-0.25896 -2.24434,-0.25896c-0.71934,0.02878 -1.43868,0.11509 -2.15802,0.25896z" id="svg_6"/>
   </g>
   <circle stroke="#FFFFFF" fill="none" stroke-width="1.359" stroke-miterlimit="10" cx="16.00098" cy="16.00098" r="15.25" id="svg_7"/>
  </g>
 </g>
</svg>